<svg width="100" height="100" viewbox="0 0 100 100" version="1.1"
    xmlns="http://www.w3.org/2000/svg" xmlns:xlink="http://www.w3.org/1999/xlink">
    <rect width="100" height="100" fill="#3f372b" />
    <rect width="90" height="90" fill="#595f37" x="5" y="5" />
    <text x="29" y="20" fill="#a19784">
        Sounds
    </text>
    <text x="54" y="41" fill="#998766">
        Never
    </text>
    <text x="10" y="90" fill="#9c7d43">
        Lost
    </text>
    <svg width="40" height="40"  x="55" y="50" fill="#bb804f"
    viewBox="0 0 79.85 122.88" version="1.1" xmlns="http://www.w3.org/2000/svg"
        xmlns:xlink="http://www.w3.org/1999/xlink">
        <path
            d="M29.57,0h15.64v5.23c39.15,8.96,43.62,27.76,20.92,57.38c2.42-29.39-0.54-35.7-20.92-37.06v74.31 c0.04,0.39,0.05,0.78,0.05,1.19c0,9.66-10.13,19.24-22.63,21.4C10.14,124.6,0,118.52,0,108.86c0-13.18,18.1-24.61,29.57-20.58 L29.57,0L29.57,0z" />

    </svg>
    <svg width="40" height="50" x="10" y="25" fill="#996b46"
    version="1.1" xmlns="http://www.w3.org/2000/svg" xmlns:xlink="http://www.w3.org/1999/xlink" x="0px" y="0px"
        viewBox="0 0 104.23 122.88">
        <g>
            <path
                d="M87.9,78.04c2.74-0.48,5.33-0.4,7.6,0.13V24.82L39.05,41.03v61.95c0.03,0.34,0.05,0.69,0.05,1.03 c0,0,0,0.01,0,0.01c0,8.34-8.75,16.62-19.55,18.49C8.76,124.37,0,119.12,0,110.77c0-8.34,8.76-16.62,19.55-18.48 c4.06-0.7,7.84-0.39,10.97,0.71l0-76.26h0.47L104.04,0v85.92c0.13,0.63,0.2,1.27,0.2,1.91c0,0,0,0,0,0.01 c0,6.97-7.32,13.89-16.33,15.44c-9.02,1.56-16.33-2.83-16.33-9.8C71.57,86.51,78.88,79.59,87.9,78.04L87.9,78.04L87.9,78.04z" />
        </g>
    </svg>
</svg>